<?xml version="1.0" standalone="no"?>
<!DOCTYPE svg PUBLIC "-//W3C//DTD SVG 20010904//EN"
 "http://www.w3.org/TR/2001/REC-SVG-20010904/DTD/svg10.dtd">
<svg version="1.0" xmlns="http://www.w3.org/2000/svg"
 width="1004.000000pt" height="236.000000pt" viewBox="0 0 339.177 339.177"
 preserveAspectRatio="xMidYMid meet">

<g transform="translate(0.000000,236.000000) scale(0.100000,-0.100000)"
fill="#000000" stroke="none">
<path d="M8075 2005 c-22 -8 -61 -14 -87 -14 -41 -1 -48 -4 -48 -21 0 -15 7
-20 29 -20 16 0 33 -6 39 -12 6 -8 12 -84 14 -176 3 -176 2 -180 -50 -142 -40
29 -108 41 -164 29 -132 -29 -221 -171 -221 -354 0 -218 119 -361 276 -331 20
4 61 24 94 46 l58 40 3 -45 3 -45 105 0 c82 0 104 3 104 14 0 8 -15 17 -34 20
-19 4 -37 14 -40 22 -3 9 -6 238 -6 510 0 554 8 506 -75 479z m-128 -406 c15
-6 38 -20 51 -31 22 -21 22 -26 22 -243 0 -217 0 -222 -22 -242 -37 -33 -64
-43 -115 -43 -63 0 -105 26 -132 82 -50 105 -54 296 -7 392 40 81 122 116 203
85z"/>
<path d="M1955 1563 c-82 -224 -162 -432 -176 -463 -28 -59 -69 -100 -100
-100 -12 0 -19 -7 -19 -20 0 -19 7 -20 130 -20 123 0 130 1 130 20 0 15 -7 20
-24 20 -35 0 -59 27 -51 59 3 14 24 79 47 144 l41 117 148 0 c82 0 149 -2 149
-5 0 -2 18 -66 40 -141 45 -154 43 -174 -15 -174 -28 0 -35 -4 -35 -20 0 -19
7 -20 170 -20 163 0 170 1 170 20 0 15 -7 20 -25 20 -13 0 -33 9 -43 21 -15
15 -260 734 -317 927 -5 17 -14 22 -38 22 l-32 0 -150 -407z m145 184 c0 -3
94 -324 106 -359 5 -17 -4 -18 -120 -18 -94 0 -126 3 -126 13 -1 23 122 367
131 367 5 0 9 -1 9 -3z"/>
<path d="M775 1951 c-25 -5 -30 -11 -30 -35 l0 -29 85 2 c150 4 256 -35 351
-130 145 -142 181 -366 88 -550 -33 -66 -75 -119 -95 -119 -10 0 -14 12 -14
40 0 22 3 40 8 40 14 0 60 85 76 139 30 102 15 234 -37 321 -71 121 -212 202
-346 199 l-56 -1 40 -8 c105 -22 182 -85 226 -186 32 -70 24 -181 -18 -255
-74 -131 -233 -179 -383 -115 -70 29 -138 115 -155 194 -10 47 -8 122 4 152
10 24 10 24 10 -7 1 -32 2 -33 46 -33 l45 0 0 63 c0 34 -3 106 -7 160 l-6 97
-159 0 -158 0 0 -35 0 -35 95 0 95 0 -41 -52 c-86 -109 -119 -204 -119 -344 0
-152 49 -272 156 -378 103 -104 230 -156 381 -156 93 0 103 4 103 46 l0 34
-72 -6 c-263 -22 -498 198 -498 466 0 103 56 244 121 306 l29 28 0 -39 c0 -25
-10 -54 -30 -85 -47 -73 -61 -125 -61 -224 0 -80 4 -96 34 -160 43 -90 111
-160 197 -200 60 -29 73 -31 175 -31 114 0 114 0 238 63 4 2 7 -26 7 -62 l0
-66 155 0 155 0 0 35 0 34 -96 3 -96 3 41 50 c74 88 131 237 131 340 0 56 -29
165 -61 232 -38 80 -147 194 -226 236 -97 52 -239 77 -328 58z"/>
<path d="M5905 1950 c-135 -28 -249 -110 -305 -220 -56 -111 -76 -305 -45
-439 42 -178 174 -307 349 -342 118 -24 266 25 371 124 47 44 57 58 48 68 -10
10 -22 4 -57 -29 -24 -22 -68 -53 -98 -68 -46 -24 -65 -28 -138 -28 -72 0 -93
4 -136 26 -130 68 -195 215 -195 447 -1 207 43 323 145 386 47 28 55 30 152
30 98 0 104 -1 145 -30 57 -40 85 -83 99 -151 10 -48 14 -55 33 -52 21 3 22 6
18 118 -1 63 -6 118 -10 122 -10 10 -248 48 -295 47 -22 -1 -59 -5 -81 -9z"/>
<path d="M7243 1893 c-20 -32 -49 -77 -65 -100 l-29 -43 29 0 c22 0 51 21 128
90 54 50 101 95 102 100 2 6 -23 10 -62 10 l-66 0 -37 -57z"/>
<path d="M8449 1897 c-60 -46 -35 -139 38 -139 34 0 73 43 73 81 0 53 -70 90
-111 58z"/>
<path d="M8870 1872 c0 -76 -72 -191 -137 -218 -22 -10 -33 -21 -33 -34 0 -17
7 -20 39 -20 l39 0 4 -272 c3 -297 6 -311 61 -352 41 -30 111 -27 170 7 50 30
61 42 52 57 -4 6 -17 4 -35 -5 -39 -20 -83 -19 -103 3 -15 16 -17 51 -17 290
l0 271 57 3 c46 2 59 7 61 21 3 15 -5 17 -57 17 l-61 0 0 125 c0 118 -1 125
-20 125 -13 0 -20 -7 -20 -18z"/>
<path d="M2802 1650 c-84 -18 -154 -80 -201 -180 -24 -51 -26 -65 -26 -190 0
-130 1 -137 30 -195 37 -75 93 -119 171 -135 105 -22 189 5 261 83 60 65 68
84 42 97 -11 7 -22 10 -23 8 -1 -2 -12 -17 -24 -35 -12 -17 -42 -41 -65 -52
-94 -46 -172 -14 -226 91 -28 56 -34 79 -39 156 -10 184 54 312 156 312 45 0
72 -28 83 -84 12 -63 23 -76 70 -76 44 0 79 27 79 61 0 90 -158 166 -288 139z"/>
<path d="M3396 1649 c-142 -35 -230 -178 -230 -374 0 -159 49 -256 151 -306
56 -27 155 -31 217 -10 45 16 116 77 145 127 20 33 20 34 1 44 -17 9 -26 4
-57 -31 -63 -70 -130 -86 -203 -49 -82 42 -125 154 -118 309 6 158 64 251 156
251 44 0 82 -38 82 -82 0 -51 24 -78 70 -78 30 0 43 6 60 27 71 90 -120 211
-274 172z"/>
<path d="M3973 1651 c-52 -13 -118 -57 -146 -98 -50 -72 -60 -117 -61 -258 -1
-128 0 -132 32 -197 50 -102 122 -147 237 -148 72 0 121 12 166 43 39 26 101
105 96 121 -8 24 -38 16 -68 -19 -41 -46 -78 -65 -129 -65 -113 0 -195 101
-202 250 l-3 55 203 3 202 2 0 38 c0 61 -29 154 -59 192 -15 19 -48 45 -72 57
-48 25 -145 37 -196 24z m137 -66 c25 -23 48 -88 53 -152 l4 -53 -139 0 -139
0 6 38 c17 99 55 165 105 185 26 11 91 0 110 -18z"/>
<path d="M4562 1649 c-60 -11 -104 -41 -129 -86 -46 -81 -38 -165 19 -220 18
-18 80 -55 138 -83 119 -59 145 -79 161 -127 9 -27 7 -40 -8 -71 -24 -50 -73
-74 -136 -69 -79 7 -135 65 -147 152 -4 35 -9 40 -33 43 l-28 3 3 -102 3 -103
55 -18 c63 -19 205 -23 264 -7 21 6 57 28 80 50 89 81 86 216 -5 293 -19 16
-85 53 -147 83 -99 47 -116 59 -128 89 -17 41 -10 74 21 104 25 24 96 37 138
26 37 -9 74 -52 86 -101 10 -38 15 -45 36 -45 25 0 25 1 25 84 0 96 7 90 -105
106 -80 11 -103 11 -163 -1z"/>
<path d="M5112 1649 c-85 -16 -141 -74 -157 -160 -18 -95 34 -159 191 -233
111 -53 131 -68 150 -112 37 -88 -52 -170 -161 -150 -69 13 -108 64 -130 169
-4 21 -11 27 -31 27 l-25 0 3 -102 3 -102 55 -18 c71 -22 212 -23 271 -3 137
49 182 213 87 321 -20 23 -73 55 -154 95 -97 47 -128 67 -140 91 -30 57 9 123
79 135 86 14 146 -23 166 -102 10 -38 15 -45 36 -45 25 0 25 1 25 84 0 96 7
90 -105 106 -80 11 -103 11 -163 -1z"/>
<path d="M6571 1634 c-18 -8 -59 -18 -90 -22 -65 -8 -77 -32 -22 -43 18 -4 37
-13 42 -21 5 -7 9 -128 9 -269 0 -279 1 -273 -58 -285 -18 -4 -32 -13 -32 -20
0 -11 32 -14 166 -14 127 0 165 3 162 12 -3 7 -24 16 -48 20 -24 4 -48 12 -54
18 -7 7 -12 85 -14 208 l-2 197 27 50 c34 61 69 77 112 52 53 -31 91 -15 106
45 5 21 1 33 -20 54 -48 48 -110 22 -177 -73 -16 -24 -33 -43 -38 -43 -5 0
-10 32 -12 72 -2 39 -7 72 -13 74 -5 1 -25 -4 -44 -12z"/>
<path d="M7099 1622 c-31 -16 -68 -46 -86 -70 -71 -94 -94 -271 -52 -407 49
-160 211 -234 368 -169 42 17 106 77 127 117 23 42 -8 36 -54 -12 -86 -90
-228 -73 -289 34 -27 47 -39 89 -48 168 l-6 57 205 0 206 0 0 37 c0 59 -30
148 -63 188 -70 85 -206 110 -308 57z m189 -39 c15 -16 29 -35 31 -43 17 -70
21 -90 21 -122 l0 -38 -139 0 -139 0 6 48 c5 52 39 128 68 153 45 39 114 40
152 2z"/>
<path d="M8486 1634 c-16 -9 -55 -19 -87 -21 -49 -5 -59 -9 -59 -24 0 -13 7
-19 24 -19 54 0 56 -9 56 -288 0 -141 -4 -262 -8 -269 -4 -6 -22 -15 -41 -20
-19 -5 -36 -14 -39 -21 -3 -9 34 -12 147 -12 128 0 151 2 151 15 0 9 -9 15
-23 15 -57 0 -57 -2 -59 340 -3 345 -2 337 -62 304z"/>
<path d="M9340 1633 c-65 -24 -142 -105 -169 -178 -97 -257 56 -525 286 -502
106 11 193 74 242 177 24 51 26 66 26 185 0 117 -2 134 -24 175 -30 59 -76
107 -126 133 -54 27 -173 33 -235 10z m190 -48 c42 -41 61 -105 67 -231 8
-168 -18 -286 -76 -338 -15 -14 -41 -21 -82 -24 -57 -4 -60 -3 -93 31 -49 52
-61 108 -61 287 0 152 1 156 30 215 22 43 40 65 65 78 49 25 113 18 150 -18z"/>
<path d="M3120 663 c-38 -14 -60 -47 -60 -88 0 -50 24 -76 86 -93 49 -14 68
-34 59 -61 -8 -28 -49 -37 -99 -23 -35 9 -43 9 -53 -5 -19 -25 -17 -29 26 -41
87 -27 162 -5 187 53 25 62 -8 118 -83 136 -48 13 -66 29 -57 53 9 22 47 30
85 17 18 -6 33 -10 33 -9 1 2 8 11 15 20 12 16 10 20 -22 33 -36 15 -88 18
-117 8z"/>
<path d="M1710 505 l0 -155 79 0 c95 0 107 4 126 41 22 42 18 68 -14 98 -28
26 -28 28 -10 39 13 9 19 24 19 51 0 60 -32 81 -126 81 l-74 0 0 -155z m134
83 c16 -26 -4 -52 -43 -56 -30 -3 -31 -2 -31 38 0 40 1 41 31 38 18 -2 37 -11
43 -20z m-16 -104 c34 -9 41 -53 12 -76 -12 -10 -33 -18 -46 -18 -22 0 -24 4
-24 50 0 53 6 58 58 44z"/>
<path d="M2160 505 l0 -155 30 0 30 0 0 65 c0 80 13 79 60 -5 31 -54 37 -60
67 -60 18 0 33 3 33 6 0 4 -16 32 -35 64 -39 65 -41 70 -21 70 34 0 58 77 40
125 -11 28 -60 45 -134 45 l-70 0 0 -155z m138 93 c30 -30 0 -78 -49 -78 -28
0 -29 2 -29 45 0 44 1 45 33 45 18 0 38 -5 45 -12z"/>
<path d="M2634 513 c-25 -82 -48 -151 -51 -155 -2 -5 11 -8 30 -8 32 0 35 3
41 36 l7 35 51 -3 c49 -3 52 -5 60 -35 8 -29 12 -33 44 -33 19 0 33 3 31 8 -3
4 -26 73 -51 155 l-47 147 -34 0 -34 0 -47 -147z m101 0 l7 -43 -32 0 c-25 0
-30 3 -26 18 3 9 8 31 12 47 14 61 26 53 39 -22z"/>
<path d="M3520 505 l0 -155 30 0 30 0 0 155 0 155 -30 0 -30 0 0 -155z"/>
<path d="M3840 505 l0 -155 85 0 c84 0 85 0 85 25 0 24 -3 25 -55 25 l-55 0 0
130 0 130 -30 0 -30 0 0 -155z"/>
<path d="M4753 645 c-56 -24 -89 -98 -78 -172 10 -67 66 -123 122 -123 22 0
54 5 72 11 31 11 31 12 31 80 l0 69 -50 0 c-38 0 -50 -4 -50 -15 0 -9 9 -15
25 -15 23 0 25 -3 25 -50 l0 -50 -42 0 c-49 0 -60 6 -77 37 -16 31 -14 139 4
173 21 40 56 48 124 29 29 -8 20 19 -10 30 -41 14 -57 13 -96 -4z"/>
<path d="M5170 506 c0 -149 1 -156 20 -156 18 0 20 7 20 66 0 57 2 65 18 62
14 -3 49 -47 87 -113 6 -9 18 -16 28 -14 15 3 11 13 -23 68 l-39 65 29 18 c50
30 53 103 5 134 -13 9 -51 18 -85 21 l-60 6 0 -157z m138 69 c4 -46 -14 -65
-65 -65 l-33 0 0 56 0 55 48 -3 47 -3 3 -40z"/>
<path d="M5620 530 c0 -126 1 -132 25 -155 34 -35 115 -36 150 -1 30 30 37 68
33 186 -3 87 -5 95 -23 95 -19 0 -20 -8 -23 -124 -1 -71 -7 -130 -14 -138 -14
-17 -82 -17 -96 0 -7 8 -13 67 -14 138 -3 109 -5 124 -20 127 -16 3 -18 -8
-18 -128z"/>
<path d="M6100 505 c0 -148 1 -155 20 -155 18 0 20 7 20 60 l0 60 35 0 c70 0
115 39 115 98 0 58 -55 91 -152 92 l-38 0 0 -155z m140 96 c15 -29 12 -67 -6
-85 -9 -9 -32 -16 -55 -16 l-39 0 0 60 0 60 45 0 c34 0 47 -5 55 -19z"/>
<path d="M6605 651 c-75 -33 -106 -139 -66 -227 24 -53 55 -74 107 -74 123 0
171 187 72 278 -28 25 -82 36 -113 23z m91 -35 c16 -12 20 -29 22 -105 4 -85
3 -91 -22 -115 -32 -33 -70 -33 -101 -1 -23 22 -25 32 -25 110 0 72 3 88 20
105 24 24 77 27 106 6z"/>
<path d="M7372 643 c-17 -32 -93 -285 -88 -290 13 -13 34 9 40 41 l7 36 63 0
62 0 10 -37 c7 -29 15 -39 33 -41 13 -2 21 0 18 5 -2 4 -25 74 -51 156 -39
123 -50 147 -66 147 -11 0 -23 -8 -28 -17z m52 -104 c9 -34 15 -63 14 -64 -11
-9 -78 -14 -82 -6 -9 14 27 131 40 131 6 0 18 -28 28 -61z"/>
<path d="M7802 640 c-38 -24 -72 -89 -72 -140 0 -51 33 -116 69 -134 38 -20
91 -20 117 -1 21 16 18 17 -47 15 -71 -2 -89 22 -89 121 0 63 4 81 22 104 19
25 26 27 70 23 34 -4 48 -1 48 7 0 13 -30 25 -65 25 -11 0 -35 -9 -53 -20z"/>
<path d="M8233 640 c-85 -51 -94 -192 -18 -259 35 -31 88 -41 129 -25 33 13
14 24 -38 24 -84 0 -102 28 -94 147 5 82 28 107 95 101 28 -2 43 1 43 8 0 29
-72 32 -117 4z"/>
<path d="M8614 646 c-3 -7 -3 -75 -2 -151 l3 -140 83 -3 c68 -2 82 0 82 13 0
12 -13 15 -60 15 l-60 0 0 55 0 55 45 0 c38 0 45 3 45 20 0 17 -7 20 -45 20
l-45 0 0 45 c0 44 1 45 33 47 17 1 41 1 52 1 21 0 37 16 29 28 -7 13 -155 7
-160 -5z"/>
<path d="M9095 651 c-31 -13 -57 -48 -57 -76 0 -34 36 -72 76 -80 51 -11 76
-32 76 -64 0 -42 -20 -53 -89 -49 -33 1 -63 0 -67 -4 -11 -12 43 -28 91 -28
84 0 140 85 91 139 -9 10 -44 28 -77 40 -54 20 -59 25 -59 51 0 45 47 61 119
39 29 -9 20 19 -10 30 -37 13 -66 13 -94 2z"/>
<path d="M9513 625 c-29 -29 -34 -40 -28 -63 10 -40 22 -50 82 -69 65 -20 84
-47 64 -89 -11 -26 -14 -26 -81 -22 -39 3 -70 2 -70 -3 0 -16 39 -29 90 -29
44 0 56 5 81 29 57 57 32 118 -61 149 -47 16 -55 23 -58 46 -6 50 38 71 101
47 19 -7 27 -6 31 4 3 8 -6 17 -26 24 -56 20 -87 14 -125 -24z"/>
<path d="M4302 548 c-17 -17 -15 -53 3 -68 20 -17 62 -5 70 20 14 44 -41 80
-73 48z"/>
</g>
</svg>
